<svg xmlns="http://www.w3.org/2000/svg" viewBox="0 0 2742 1828" id="employee-is-working-online">
  <g>
    <path fill="#ffe4ce" fill-rule="evenodd" d="M1806.43,1227.36c.91-2.26,22.92-70.15,22.92-70.15l4.48-21.34,6.82,6.88.93,8.51-9.82,14.42.85,10.41-2.46,9.06-5.05,5.56,2.66,9.72-4,5.68-4.93,6.77.69,7.71-5.85,4.16S1805.52,1229.61,1806.43,1227.36Z"></path>
    <path fill="#fff" fill-rule="evenodd" d="M929.67,941.71c-4.62-42.3-7.07-66.33-.58-119.56,4.08-33.46,18.34-72.2,37.88-82,5.83-2.91,16-7.68,26.34-10.38,22.29-5.82,48.18-12.08,67.63-15.11,8.34-1.29,55.68-10.83,65.62-17.21,1.52-1,3.4-14.25,11.67-22.88,8.11-8.47,26.59-18.28,33.17-15.59,55.32,22.65,114.35-20.42,153-20.42,8.21,0,26.44,20.76,37.42,38.19,5,8,4.65,18.92,7.94,20.36,6.93,3,14.71,5,25.46,8.6,13.38,4.45,30.45,10.47,45.53,13.66,33,7,65.43,11.53,83.34,40.51,30,48.54,32.32,106.6,39.16,169.49,6.11,56.16,18,118.6,22.43,142.7.8,4.24,19.44,10.92,19.44,10.92L1471.7,1422.64l-431.62-.1,16.06-74s-25.59,1.59-45.25.25c-15.79-1.08-25.86-4.79-30.08-7.28-11.22-6.61-15.65-18-19.93-31.55a427.94,427.94,0,0,1-12.52-52.44c-10-54.82-11.88-109.88-12.8-170C934.77,1036.59,931.75,960.78,929.67,941.71Z"></path>
    <path fill="#fff" fill-rule="evenodd" d="M1201.45,1383.75l289.88-294.35s.73-5.57,10.19-6,44.65,0,68.12-.21,249.11.45,249.11.45,7.81,8,13.14,13.82,7.93,7.48,5.49,19.66c-.78,3.9-9,38.77-21.91,81.23-11.33,37.36-26.83,79.78-36.5,123.51-13.58,61.39-14.77,127-14.77,127l-295,19.05.29-32.09,3.67-38.94,10.65-66.73,15.5-57.4,12.15-43.64,10.8-53,3.94-36.93-2.16-28.57-7.33-11.47-18.5,1.14-292.85,297Z"></path>
    <path fill="#ffe4ce" fill-rule="evenodd" d="M1312.42 1272.79a109.24 109.24 0 0 1-5.19-13.35 130.7 130.7 0 0 0-8-20c-4.4-9.33-4.54-12.83-6.61-22.54s-4.15-18.15-4.15-18.15a15.74 15.74 0 0 0 8.42-6.6c3-5.06 6.88-5.19 7.65-12.58s-1.17-7.25 2.34-13.6 4.92-7.65 4.14-14-5.57-3.49-.13-11.79 11.67-15.81 19.05-20.86 25.08-11.82 32.83-14.4 13.69-5.5 19.42-6.62 9.42.78 16.5 4.27 15.49 8.75 24.25 13 27.38 14.37 27.38 14.37ZM1425.84 1107.43l-41.08-21.83s.09-7.36.58-10.93 2.48-9.94 6.8-13.82 5.57-6.09 10.29-4.49 7.08.6 9.45 7.92 4.37 11.43 6.4 17.71 2.46 9 4.11 13.62S1425.84 1107.43 1425.84 1107.43Z"></path>
    <path fill="#d65d47" fill-rule="evenodd" d="m1456.77 1124.15-5.53 4.37s-19.58-7.47-27.88-11.52-25-13.78-31.55-16.27-11.53-1.79-16.18-.7-9.1 1.64-9.1 1.64L1219.11 1025l-3.87-8.46 4.42-8.65 11.31-1.54ZM1204.8 1396.44l293.64-297.29 19.17 0s5.83 13.66 6.41 22.73 1.4 25.22 0 40.51-7.42 42.48-10 52.93-8.54 40.58-11.58 50.47-10.23 34.4-12.27 43.57-5.49 25.9-7.58 36.15-9.19 52.86-9.19 52.86l-261.36 9ZM615.49 1562.61l833.08-10.89 10.14 2L1316 1709.54l-403.9-73.21-16 6.39-16.05-.29-6.63-9.46-1.2-9.4-284.86-50.09Z"></path>
    <path fill="#fff" fill-rule="evenodd" d="M607.13,1554.39S670.52,1534.73,689,1529s88.49-26.4,106.77-33.68,63.12-22.89,63.12-22.89,26.51,3.47,40.33,4.24,39.33,2.53,54.43-.16,55.33-6.61,69.65-9,38.64-5.07,55.86-4.81,27.07.66,35.64,3.4a24.83,24.83,0,0,1,12.75,9.54s7.07-1.3,12.79-2.06a53.53,53.53,0,0,1,24.76,2.93c9.89,3.61,43.82,14.52,59.42,19.26s52.64,17.36,65.68,20,43.79,7.44,56.14,8.75S1455.92,1536,1455.92,1536l-2.6,9.26-141,152.11-27.77,2.91-40.12-8-40.64-9.92-78.26-19.82L1028.76,1642l-62.28-12.24-32.63-3.58-24.44,2.48-19.69-1.06-12.06-11.94-21.91-11.76L828,1599.5l-38.34-1-48.89-3.65-48.29-9.36-58.26-17.75Z"></path>
    <path fill="#ddd" fill-rule="evenodd" d="M1771.52,1661.65h-11.14l-221.79-86.51-13.58-12-11.29-16.93,302.67-18.81Z"></path>
    <path fill="#ddd" fill-rule="evenodd" d="M2428.22,1289.42,1917.57,1324c-6.73.46-9,6.74-11.89,14.18l-145.53,310.25c.55,8.15,6.44,14.38,13.16,13.92L2284,1627.76c6.72-.45,10.48-10.87,13.31-17.41s144.1-307,144.1-307C2440.83,1295.2,2434.94,1289,2428.22,1289.42Z"></path>
    <path fill="#fff" fill-rule="evenodd" d="M2085.77,1466.48c8.07-20.65,25.88-33,39.77-27.57s18.61,26.57,10.54,47.23-25.87,33-39.77,27.57S2077.7,1487.13,2085.77,1466.48Z"></path>
    <path fill="#571519" d="m1193.19 1057.62-.54 0a4.57 4.57 0 0 1-4-5.07c.27-2.35.45-4.06.58-5.36.47-4.59.57-5 2.21-9 .6-1.5 1.47-3.62 2.72-6.94a4.57 4.57 0 1 1 8.55 3.23c-1.29 3.42-2.18 5.61-2.81 7.15a15.9 15.9 0 0 0-1.58 6.53c-.13 1.32-.32 3.07-.6 5.48A4.56 4.56 0 0 1 1193.19 1057.62ZM1207.64 1057.16a3.27 3.27 0 0 1-.54 0 4.56 4.56 0 0 1-4-5.06c.3-2.58.46-4.24.57-5.4a19.27 19.27 0 0 1 1.55-6.74c.31-.87.72-2 1.27-3.58a4.57 4.57 0 1 1 8.63 3c-.56 1.61-1 2.78-1.31 3.68a12.23 12.23 0 0 0-1 4.5c-.11 1.2-.28 2.92-.59 5.59A4.58 4.58 0 0 1 1207.64 1057.16Z"></path>
    <path fill="#a05e52" fill-rule="evenodd" d="M1440.23,376.72c-13.12-24.32-27-31.91-45.73-41.09-11.33-5.67-18.33-11.31-56.11-27.52-28.43-11.63-86.71-14.6-98.65-8.64-13.48,6.41-32.33,10.42-32.33,10.42s-42.48-26.59-72.13,5.58-44.75,68.37-56.72,107.32c-8.17,25.69-9.16,60-6.84,83.87a245.22,245.22,0,0,0,10,42.92l.83,18.58.21,29,2.65,27.52,4.72,22.34,9.16,19.09,14.83,13.47,16.67,4.91,8.12-12s-17.62-7.25-25.84-24.72-7-45.16-7-45.16l11.9,26.74,12.88,21.33,17.05,11.14,9.38.53,13.54-4.22s1.61-29.89,1.4-53a382.66,382.66,0,0,0-2.21-39.36l1.09-16,235.65-20.55s35-21.68,48.65-49.34c5.53-10.76,7.85-27.95,7-39.83C1458.85,423.29,1449.43,394.48,1440.23,376.72Z"></path>
    <path fill="#ffe4ce" fill-rule="evenodd" d="M1339.69,696.07s-5.52-4.6-7.55-10.75-.56-13.86-.56-13.86,33.11-23.52,52.77-56.72,19.77-62.51,22.1-71.63c7.27-28.79,13.44-43.1,13.46-55.56-.2-3-4.12-9.54-8.45-22-3.54-8.69-6.93-30.56-12.77-34.52-23.78-17.41-46.53-11.9-54.83-6-16.46,11-36.7,22.85-63,27.74-26.15,4.18-28.41,17-46.21,31.43-17,13.87-37.59,7.29-37.59,7.29s-11.34-5.67-19.66-7.87c-18.18-3.95-23.76,11.2-24.89,17.6-4.51,27.64,16.28,47.22,16.28,47.22s2.57,39.77,3.2,60.19c.09,2.9.49,30-3.2,53.5-3.42,21.87-7.85,34.27-7.85,34.27l24.63,24.91L1245,769.5l33.21,36.77,8.8,15.78,9.33,10.37,4-24.59,14.61-44Z"></path>
  </g>
  <g>
    <path fill="#571519" d="M1296.62,838.57a4,4,0,0,1-.49,0c-3.94-.35-7.07-4.38-17.64-22.72-1.52-2.63-3.08-5.35-3.57-6-14.79-20.27-35.58-38.83-55.84-55.87-5.52-4.64-11.21-9.2-16.93-13.78-11.67-9.34-23.74-19-34.38-29.47-8.93-8.8-22.42-22.09-12-39.07a4.57,4.57,0,0,1,7.78,4.79c-6.17,10,.5,17.82,10.6,27.76,10.3,10.15,22.18,19.66,33.67,28.86,5.78,4.62,11.53,9.23,17.1,13.91,20.7,17.41,42,36.43,57.34,57.48.75,1,1.92,3.05,4.11,6.84,1.53,2.66,4.14,7.19,6.6,11.14.2-1.71.45-3.44.8-5.17a241.66,241.66,0,0,1,8.16-30.52c2.27-6.53,4.49-13.08,6.71-19.62,5.45-16.05,11.08-32.65,17.2-48.58,1-2.62,2.07-5.21,3.13-7.8,4.89-11.92,9.5-23.19,8.13-35.71a18.29,18.29,0,0,0-1-4.33,4.57,4.57,0,1,1,8.59-3.15,28.2,28.2,0,0,1,1.53,6.49c1.62,14.83-3.66,27.71-8.76,40.17-1,2.52-2.07,5.05-3,7.61-6.06,15.76-11.67,32.27-17.09,48.24q-3.33,9.84-6.72,19.67a230.51,230.51,0,0,0-7.84,29.33,85,85,0,0,0-1.16,9.4l-.09,1c0,.18.09.55.15.93.28,1.79.71,4.49-1.22,6.55A5.19,5.19,0,0,1,1296.62,838.57Zm1.8-8.63h0Z"></path>
    <path fill="#571519" d="M1176.56 821.91a5.37 5.37 0 0 1-2.44-.58c-7.57-3.84-34.43-60-43.25-84-6.95-18.9-9-32.6-7-45.81 2.39-15.26 26.39-37.19 45.63-37.42a4.73 4.73 0 0 1 4.63 4.52 4.58 4.58 0 0 1-4.52 4.62c-14.58.17-34.94 18.38-36.71 29.69-1.81 11.58.13 23.91 6.51 41.24 9.51 25.85 29.23 64.87 36.92 76.3 1.43-2.8 3.14-6.85 4.23-9.41a65.92 65.92 0 0 1 4.07-8.73c8.68-13.46 29-45 56-28.34a4.57 4.57 0 1 1-4.79 7.78c-17.08-10.52-31.58 7-43.53 25.51a76 76 0 0 0-3.34 7.33c-4.63 11-6.88 15.6-10.52 16.93A5.61 5.61 0 0 1 1176.56 821.91Zm2.13-8.46ZM1378.2 796.2c-2.43 0-5.8-2.74-22.32-20.29l-.55-.58c-7-7.4-21-16.72-29.08-15-1.9.41-4.65 1.58-6.53 7a4.57 4.57 0 1 1-8.64-3c3.13-9 8.94-12 13.26-12.94 14.36-3 32 11.69 37.64 17.64l.55.58c5.63 6 9.52 10 12.2 12.65a137.47 137.47 0 0 0-2.45-15.44c-.87-4.43-1.69-8.6-2-12.05-.54-6.12-.83-12.59-1.1-18.84-1-24-2.1-48.72-17.42-65.36-1.38-1.49-3.14-3.38-5.14-5.46a4.57 4.57 0 0 1 6.61-6.32c2 2.13 3.85 4.07 5.25 5.59 17.58 19.09 18.73 45.56 19.84 71.16.27 6.43.54 12.51 1.06 18.42.26 3 1 6.91 1.86 11.09 1.87 9.49 4 20.25 1.8 27.64a4.85 4.85 0 0 1-3.41 3.25A6.16 6.16 0 0 1 1378.2 796.2Z"></path>
    <path fill="#571519" d="M1027.32,1353.44c-16.85,0-34.47-1.38-46.47-6.42-14.89-6.25-22.07-30.4-23.35-35.18-8.46-31.33-16.68-65.93-19.56-106.58-1.41-19.93-3.8-69.62-6.32-122.22-2.89-60.18-5.88-122.41-8.1-155.57-4.51-67.54-3.6-110.1,13.87-155.25a76,76,0,0,1,42-42.31c22.78-9.42,51.5-14.57,79.27-19.55,25.6-4.6,49.78-8.93,65.12-16.07a4.57,4.57,0,1,1,3.85,8.29c-16.41,7.63-41.16,12.07-67.36,16.77-27.29,4.9-55.52,10-77.38,19a66.8,66.8,0,0,0-36.93,37.16c-16.85,43.55-17.69,85.14-13.27,151.35,2.22,33.24,5.21,95.51,8.11,155.73,2.52,52.55,4.91,102.19,6.31,122,2.67,37.66,9.63,69.15,19.26,104.84,3.26,12.1,10.11,25.79,18.07,29.13,19.33,8.12,58.45,5.53,77.26,4.29,67.2-4.45,128.36-21.75,193.12-40.06q11.09-3.15,22.23-6.27a4.57,4.57,0,1,1,2.46,8.8q-11.13,3.12-22.2,6.26c-62.37,17.64-126.85,35.88-195,40.39C1053.07,1352.61,1040.42,1353.44,1027.32,1353.44Z"></path>
    <path fill="#571519" d="M995.64,1223.16a4.57,4.57,0,0,1-1.53-8.87c3.18-1.13,6.34-2.29,9.5-3.45,14-5.12,28.4-10.42,44.06-12.61,13.52-1.9,27,1,40,3.7,5,1.06,9.77,2.06,14.51,2.8,34.41,5.37,68,9.77,100.11,4.82,16.45-2.53,33.46-5.15,50.22-9.67,1.61-.43,3.25-1,4.9-1.6,6.71-2.38,15.88-5.63,23.37,1.9a4.57,4.57,0,0,1-6.48,6.44c-3.08-3.1-6.59-2.3-13.83.27-1.88.67-3.75,1.33-5.58,1.82-17.25,4.65-34.51,7.31-51.21,9.88-33.44,5.15-67.76.65-102.91-4.83-5-.77-10.07-1.85-15-2.89-12.25-2.59-24.9-5.26-36.83-3.59-14.7,2.06-28.05,7-42.18,12.14-3.19,1.17-6.38,2.34-9.6,3.48A4.5,4.5,0,0,1,995.64,1223.16Z"></path>
    <path fill="#571519" d="M1290.14 1280.05a4.57 4.57 0 0 1-4.41-3.38c-1-3.76-2.23-7.82-3.49-12.07-5.59-18.75-12.53-42.08-8.78-60.59a4.57 4.57 0 0 1 9 1.81c-3.29 16.28 3.29 38.4 8.59 56.17 1.29 4.33 2.52 8.47 3.55 12.3a4.56 4.56 0 0 1-3.22 5.6A4.48 4.48 0 0 1 1290.14 1280.05ZM1310.18 1271.09a4.57 4.57 0 0 1-4.35-3.15l-.78-2.36c-2-5.9-4-12-3.93-18.76.25-30 38.49-37.72 66.41-43.35l2.36-.48a4.57 4.57 0 1 1 1.82 9l-2.37.47c-24.86 5-58.89 11.9-59.08 34.48 0 5.24 1.66 10.36 3.47 15.79l.79 2.42a4.56 4.56 0 0 1-4.34 6Z"></path>
    <path fill="#571519" d="M1310.1,1229.85a4.56,4.56,0,0,1-3.48-1.61,31.46,31.46,0,0,1,8.23-47.48c16.41-9.41,47.8-11.69,73-13.51,7.41-.54,14.42-1,19.81-1.68a4.57,4.57,0,1,1,1,9.08c-5.58.65-12.68,1.17-20.2,1.71-23,1.67-54.53,4-69.14,12.33a22.18,22.18,0,0,0-10.73,15.51,21.79,21.79,0,0,0,4.92,18.12,4.57,4.57,0,0,1-3.48,7.53Z"></path>
    <path fill="#571519" d="M1309.14,1190.53a4.47,4.47,0,0,1-1.56-.28c-3.64-1.32-5.92-5.68-6.76-13-1.59-13.69,9.15-25.82,19.81-31.29,37.73-19.38,86-5.44,105,1.45a4.57,4.57,0,1,1-3.12,8.6c-37.25-13.51-73.8-14.23-97.75-1.92-8,4.11-15.94,13.25-14.92,22.11a17.85,17.85,0,0,0,1.44,5.71,4.57,4.57,0,0,1-2.19,8.58Z"></path>
    <path fill="#571519" d="M1311.06 1160.51a4.57 4.57 0 0 1-4.28-3c-6-15.77 2.64-30.32 25.51-43.24a229.33 229.33 0 0 1 26-12.07c1.7-.7 3.25-1.33 4.58-1.9l1-.42c6.64-2.84 16.66-7.14 24.25-5.08 7.18 1.94 17.57 7.11 28.57 12.59 12.38 6.18 26.43 13.17 34.21 14.38a4.57 4.57 0 0 1-1.4 9c-9.18-1.42-23.27-8.44-36.89-15.23-10.12-5-20.57-10.25-26.88-12-4.48-1.2-13.45 2.61-18.27 4.67l-1 .43c-1.37.58-3 1.23-4.7 1.94a220.72 220.72 0 0 0-25 11.58c-27.66 15.62-23 28-21.46 32.06a4.58 4.58 0 0 1-4.27 6.18ZM1424.88 1107.87a4.56 4.56 0 0 1-4.17-2.69 91.71 91.71 0 0 1-4.55-13.19c-.5-1.78-1-3.58-1.45-5.37-2.31-8.7-4.49-16.93-8.7-22.6-2.59-3.49-4.76-2.81-5.59-2.57-4.37 1.33-9.52 8.54-9.92 16.75a28.25 28.25 0 0 0 .14 4.21 4.57 4.57 0 1 1-9.1.88 39.07 39.07 0 0 1-.17-5.52c.56-11.44 7.76-22.44 16.4-25.06 5.83-1.78 11.5.38 15.57 5.87 5.26 7.07 7.77 16.54 10.2 25.7.47 1.76.93 3.51 1.42 5.25a84.67 84.67 0 0 0 4.08 11.89 4.56 4.56 0 0 1-2.29 6A4.48 4.48 0 0 1 1424.88 1107.87ZM1290.15 1204.16a4.57 4.57 0 0 1-2.51-8.39c4.72-3.08 7.17-7.45 10-12.52.82-1.47 1.66-3 2.58-4.48a4.57 4.57 0 1 1 7.81 4.74c-.85 1.41-1.64 2.82-2.42 4.21-3.13 5.59-6.37 11.38-13 15.7A4.58 4.58 0 0 1 1290.15 1204.16Z"></path>
    <path fill="#571519" d="M1279.62,1205.69c-.46,0-.93,0-1.41,0a4.57,4.57,0,0,1,.75-9.11c2.3.18,5-.72,7.47-1.72a4.57,4.57,0,0,1,3.4,8.49A27.49,27.49,0,0,1,1279.62,1205.69Z"></path>
    <path fill="#571519" d="M1305.38 1256.42a4.58 4.58 0 0 1-4.08-2.5c-10.17-20-17.66-50.66-15-56.38a4.57 4.57 0 0 1 8.52 3.25c-.3 3.87 4.34 28.68 14.67 49a4.57 4.57 0 0 1-2 6.15A4.63 4.63 0 0 1 1305.38 1256.42Zm-10.81-55.1h0ZM1585.4 1076a4.55 4.55 0 0 1-4.27-3c-5.56-14.64-15.88-94.7-24.17-159-3.25-25.2-6.06-47-8-60.58-6.62-45.49-12.86-88.45-54.11-114.56-10.66-6.75-24-9.05-37-11.28-5.71-1-11.61-2-17.22-3.38-20.67-5.12-39.27-11.89-59-19.06l-10.7-3.89a4.57 4.57 0 0 1 3.1-8.6l10.73 3.9c19.45 7.08 37.83 13.78 58 18.78 5.29 1.31 10.77 2.25 16.58 3.25 13.81 2.38 28.1 4.83 40.3 12.56 44.8 28.36 51.64 75.44 58.26 121 2 13.69 4.8 35.48 8 60.72 7.8 60.49 18.48 143.33 23.65 157a4.56 4.56 0 0 1-2.65 5.89A4.38 4.38 0 0 1 1585.4 1076Z"></path>
    <path fill="#571519" d="M1511.3 1088a2.88 2.88 0 0 1-.41 0 4.56 4.56 0 0 1-4.14-5c.41-4.66.85-9.3 1.28-13.9 2.47-26.5 4.8-51.53 3.27-72.08-1-13.31-4.84-30.77-8.92-49.26-7.56-34.27-16.13-73.11-11.85-105.66a4.57 4.57 0 1 1 9.06 1.19c-4.07 31 4.31 69 11.71 102.5 4.16 18.82 8.08 36.59 9.12 50.55 1.59 21.31-.78 46.72-3.29 73.61-.43 4.58-.86 9.21-1.28 13.86A4.57 4.57 0 0 1 1511.3 1088ZM1089.14 1208.92a4.56 4.56 0 0 1-4.43-3.47c-8.33-33.44-14.37-186.8-12.48-224.71 2.37-47.41-4.32-111.85-31-137.44a4.57 4.57 0 0 1 6.33-6.59c28.83 27.69 36.34 92.79 33.76 144.48-2.09 41.77 4.5 191 12.22 222.06a4.58 4.58 0 0 1-3.33 5.54A4.73 4.73 0 0 1 1089.14 1208.92ZM1039.89 1426.08a5.39 5.39 0 0 1-.79-.07 4.56 4.56 0 0 1-3.71-5.29 478.6 478.6 0 0 1 17.66-72.32 4.57 4.57 0 0 1 8.71 2.79c-9.27 28.91-13 46-17.37 71.1A4.58 4.58 0 0 1 1039.89 1426.08ZM1345.71 1115.5a4.57 4.57 0 0 1-4.55-4.18c-.45-5.37-.8-10.9-1.06-16.92a4.56 4.56 0 0 1 4.36-4.76 4.5 4.5 0 0 1 4.77 4.37c.25 5.88.6 11.29 1 16.54a4.57 4.57 0 0 1-4.16 4.94ZM1343.93 1064.51a4.57 4.57 0 0 1-4.57-4.52c-.26-23.46-.53-47.73-4.76-71.54-5.31-29.82-14.39-59.2-23.18-87.62-6.74-21.82-13.72-44.39-19-67.06a4.57 4.57 0 1 1 8.9-2.07c5.17 22.36 12.1 44.76 18.79 66.43 8.87 28.68 18 58.35 23.45 88.72 4.36 24.56 4.65 50.32 4.9 73a4.57 4.57 0 0 1-4.52 4.62Z"></path>
    <path fill="#571519" d="M1454.3,1127.8a4.59,4.59,0,0,1-2.11-.51l-222.82-115.81a6,6,0,0,0-4.61-.4,6.12,6.12,0,0,0-1,11.23l144.53,75a4.57,4.57,0,0,1-4.21,8.11l-144.53-75a15.25,15.25,0,0,1,14-27.07l222.83,115.82a4.57,4.57,0,0,1-2.11,8.62Z"></path>
    <path fill="#571519" d="M1325.67 1047.57a4.58 4.58 0 0 1-2.08-.5c-11.5-5.88-26.22-14.76-39.21-22.6-8.58-5.17-16.69-10.06-21.92-12.88l-2-1.11c-4.72-2.6-13.51-7.44-17.18-5.75-1.14.52-2 2-2.47 4.37a4.57 4.57 0 1 1-8.94-1.89c1.13-5.37 3.69-9 7.6-10.79 7.85-3.6 18 2 25.4 6.05l2 1.08c5.42 2.92 13.24 7.64 22.3 13.1 12.86 7.76 27.44 16.55 38.65 22.28a4.57 4.57 0 0 1-2.08 8.64ZM1216.47 1412.26a15 15 0 0 1-15.17-14.85 4.57 4.57 0 0 1 1.28-3.17c.72-.74 72.51-75.18 144.07-148.67 146.12-150 148.56-150 151.65-150l14-.12h0a4.57 4.57 0 0 1 0 9.14l-12.73.11c-15.24 11.93-179.38 180.74-288.93 294.34a5.84 5.84 0 0 0 5.63 4.11l252.45-9.63a4.57 4.57 0 1 1 .35 9.13l-252.63 9.64Zm281.94-307.58h0Z"></path>
    <path fill="#571519" d="M1205.65 1403.24a4.57 4.57 0 0 1-4.25-2.88c-.38-.95-3.7-9.5-3.7-15.87a4.57 4.57 0 0 1 1.28-3.17c10.74-11.14 263.24-273 289.34-294.86a4.56 4.56 0 1 1 5.87 7c-24.75 20.79-266.52 271.29-287.23 292.77a51.13 51.13 0 0 0 2.94 10.77 4.58 4.58 0 0 1-2.57 5.93A4.51 4.51 0 0 1 1205.65 1403.24ZM1602.39 1084.2a4.49 4.49 0 0 1-1.84-.4c-16.57-7.32-29.36-9.42-50.56-12.89l-1.48-.24a4.58 4.58 0 0 1 1.48-9l1.48.25c21.16 3.46 35.14 5.75 52.77 13.56a4.57 4.57 0 0 1-1.85 8.75Z"></path>
    <path fill="#571519" d="M1468.08,1471.92a4.58,4.58,0,0,1-4.57-4.68c0-.91,2.41-92.26,28-180.6,28.48-98.45,32-138.59,28.58-171.43-2.28-21.57-26.26-23.24-27.28-23.3a4.57,4.57,0,0,1-1.7-8.69c.33-.16,8.18-3.8,22.77-4.07,38.52-.71,115.19-1.17,178.28-1,125.88.23,127.87,2.08,129.8,3.87,1.19,1.11,2.41,2.22,3.63,3.32,8.65,7.83,17.6,15.92,16.61,26.62-2.91,31.39-20.48,86.46-39.07,144.76-3.14,9.84-6.32,19.82-9.49,29.86-25.07,79.39-24,161.23-24,162a4.57,4.57,0,0,1-4.28,4.63l-296.94,18.69ZM1512,1088.35c8.31,4.7,15.8,12.78,17.19,25.9,3.59,33.94,0,75-28.89,174.93-21.84,75.48-26.55,153.17-27.43,173.29l287.62-18.1c.16-18.21,2.27-90.35,24.45-160.58,3.17-10,6.35-20,9.49-29.88,18.44-57.82,35.86-112.43,38.67-142.82.57-6.16-6.33-12.4-13.63-19l-3-2.68c-17-2.82-222.75-2.57-302.46-1.11C1513.31,1088.3,1512.63,1088.33,1512,1088.35Zm305.16,1.18Z"></path>
    <path fill="#571519" d="M1827.57,1173.59a4.57,4.57,0,0,1-3.68-7.28,63.18,63.18,0,0,1,5.11-5.87c6.57-7,9.51-10.65,4.57-17.63a4.57,4.57,0,0,1,7.46-5.29c9.48,13.4.54,22.89-5.38,29.18a56.8,56.8,0,0,0-4.39,5A4.56,4.56,0,0,1,1827.57,1173.59Z"></path>
    <path fill="#571519" d="M1824.29,1194.87a4.57,4.57,0,0,1-2.7-8.26c4.68-3.41,6.51-8.67,5.44-15.62a4.57,4.57,0,0,1,9-1.39c1.61,10.46-1.54,18.89-9.08,24.39A4.51,4.51,0,0,1,1824.29,1194.87Z"></path>
    <path fill="#571519" d="M1812.69,1217.87a4.57,4.57,0,0,1-2.09-8.64l1.11-.57c8-4.08,11-6.2,10-12.32a4.57,4.57,0,1,1,9-1.39c2,13.23-7.75,18.22-14.9,21.86l-1.09.55A4.59,4.59,0,0,1,1812.69,1217.87Z"></path>
    <path fill="#571519" d="M1809.31 1229.71a4.57 4.57 0 0 1-1.19-9c3.86-1 5.46-2.68 6.85-7a4.57 4.57 0 0 1 8.71 2.79c-2.34 7.29-6.28 11.19-13.17 13A4.55 4.55 0 0 1 1809.31 1229.71ZM1772.59 1667a15.75 15.75 0 0 1-11.49-5.18 21 21 0 0 1-5.51-13 4.59 4.59 0 0 1 .42-2.25l145.7-310.7c2.88-7.36 6.15-15.71 15.54-16.35l510.66-34.61a15.72 15.72 0 0 1 12.52 5.16 20.93 20.93 0 0 1 5.52 13 4.72 4.72 0 0 1-.43 2.25c-1.41 3-141.28 300.47-144 306.88l-.78 1.84c-3.17 7.48-7.51 17.72-16.42 18.32l-510.66 34.62C1773.28 1667 1772.93 1667 1772.59 1667Zm-7.76-17.72a11.48 11.48 0 0 0 2.91 6.25 6.61 6.61 0 0 0 5.26 2.32l510.66-34.62c3.31-.22 6.76-8.38 8.62-12.77l.81-1.9c2.76-6.39 132.67-282.71 143.62-306a11.53 11.53 0 0 0-2.92-6.25 6.71 6.71 0 0 0-5.25-2.32h0l-510.66 34.61c-3.28.23-4.78 3.23-7.65 10.57l-.29.72Zm663.39-359.83h0Z"></path>
    <path fill="#571519" d="M1767.72,1669.35a4.64,4.64,0,0,1-1.66-.31c-1.69-.66-169.87-66-225.79-88-10.71-4.23-28-27.46-29.91-30.09a4.56,4.56,0,0,1,5.36-7l246.14,97.52a4.57,4.57,0,0,1-3.36,8.5l-230-91.14c5.63,6.41,11.53,12.23,15.15,13.66,55.9,22.07,224.06,87.35,225.76,88a4.57,4.57,0,0,1-1.66,8.83Z"></path>
    <path fill="#571519" d="M1514.14 1550.92a4.57 4.57 0 0 1-.29-9.13l300.21-19.3a4.57 4.57 0 0 1 .59 9.12l-300.21 19.3ZM1316.33 1714.54a4.4 4.4 0 0 1-.8-.07l-404.06-72.6c-4.42 2.14-17.66 7.76-29.94 4.56-10.86-2.83-13.71-11.66-13.71-18.43l-283.44-48.81a4.57 4.57 0 0 1-.75-8.81l27.48-9.75a4.57 4.57 0 0 1 3 8.62l-11 3.9 270.39 46.57a4.57 4.57 0 0 1 3.68 5.49c-.35 1.66-1.68 10.22 6.61 12.38 11.11 2.88 24.57-4.42 24.71-4.49a4.55 4.55 0 0 1 3-.5L1314.66 1705l135.66-148.85a4.57 4.57 0 0 1 4.07-7.82l5.13 1.11a4.57 4.57 0 0 1 2.41 7.54l-142.22 156A4.55 4.55 0 0 1 1316.33 1714.54Z"></path>
    <path fill="#571519" d="M913.94,1635.46a4.58,4.58,0,0,1-1.45-.23c-4.62-1.54-9.33-1.73-14.31-1.93-8.87-.35-18.92-.75-28-9.84a4.57,4.57,0,1,1,6.46-6.47c6.56,6.57,13.67,6.85,21.91,7.18,5.4.21,11,.43,16.84,2.39a4.57,4.57,0,0,1-1.44,8.9Z"></path>
    <path fill="#571519" d="M893,1630.33a4.57,4.57,0,0,1-4.08-6.63c3.18-6.28,3.56-12.31,1.16-18.43-5.46-13.92-24-25-38.13-30.25-33.12-12.29-60.16-9.64-94.38-6.29-19.78,1.93-42.19,4.11-69,3.57-18.73-.39-79.88-11-82.48-11.41a4.57,4.57,0,0,1-.64-8.85l253-83a4.62,4.62,0,0,1,1.92-.2c.56.06,57.21,6.18,83.17,4.26,10.59-.78,25.67-2.83,43.14-5.2,79.21-10.75,140.18-17,145,8.58a4.57,4.57,0,1,1-9,1.68c-3.56-19-88.89-7.43-134.74-1.2-17.61,2.39-32.83,4.46-43.7,5.26-25.15,1.86-75.89-3.35-83.85-4.19L626,1554.93c20.07,3.26,51,8,62.81,8.23,26.24.53,48.36-1.62,67.89-3.53,34-3.32,63.37-6.2,98.45,6.82,16.71,6.19,36.9,18.77,43.46,35.49,3.35,8.56,2.85,17.27-1.51,25.88A4.56,4.56,0,0,1,893,1630.33Z"></path>
    <path fill="#571519" d="M1313.91,1690.87a4.62,4.62,0,0,1-.74-.06c-10.09-1.65-248-40.64-319.07-71.41-3.51-1.52-7-3.12-10.54-4.73-31.29-14.35-60.85-27.91-102.72,14.63a4.57,4.57,0,0,1-6.52-6.41c46.37-47.09,81.8-30.87,113-16.53,3.46,1.58,6.91,3.16,10.36,4.65,66.32,28.7,288.93,66.14,314.52,70.38l133.47-141c-19.13-1.48-65.34-5.7-128.43-15.74-32-5.09-62.62-14.93-92.27-24.45-11.14-3.58-22.67-7.28-34.15-10.7-3.72-1.1-7.3-2.21-10.75-3.27-22.69-7-39.07-12-50-4.49a4.57,4.57,0,0,1-5.17-7.54c14.6-10,33.71-4.15,57.9,3.29q5.13,1.59,10.67,3.25c11.57,3.44,23.15,7.16,34.34,10.75,30.67,9.85,59.63,19.15,90.91,24.13,83.12,13.23,136.68,16.29,137.21,16.33a4.56,4.56,0,0,1,3.07,7.7l-141.79,149.79A4.56,4.56,0,0,1,1313.91,1690.87Z"></path>
    <path fill="#571519" d="M941.33 1598.46a4.57 4.57 0 0 1-2.42-8.45l186-116.06a4.57 4.57 0 1 1 4.84 7.75l-186 116.06A4.55 4.55 0 0 1 941.33 1598.46ZM888.69 1626.63a4.36 4.36 0 0 1-.72-.05 4.58 4.58 0 0 1-3.8-5.23c3.22-20.21-37.75-29.59-55.52-32.69-25.35-4.41-51.17-3.71-76.14-3-16.56.44-33.68.91-50.75-.09-19.35-1.13-38.11-5.66-56.26-10-11.59-2.8-23.58-5.7-35.3-7.57a4.57 4.57 0 1 1 1.44-9c12.08 1.92 24.24 4.86 36 7.7 17.75 4.29 36.11 8.72 54.64 9.81 16.67 1 33.6.51 50 .07 25.42-.68 51.7-1.4 78 3.18 56.17 9.79 65.25 28.85 63 43.12A4.57 4.57 0 0 1 888.69 1626.63Z"></path>
    <path fill="#571519" d="M882.75,1628.19a4.58,4.58,0,0,1-4-2.36c-10.68-19.41-44.67-21.11-59.18-21.83-49.67-2.48-98.17-5.83-145.48-19.55a4.57,4.57,0,1,1,2.55-8.78c46.36,13.44,94.28,16.75,143.38,19.2,26.5,1.32,55.16,5.51,66.74,26.55a4.56,4.56,0,0,1-1.8,6.2A4.49,4.49,0,0,1,882.75,1628.19Z"></path>
    <path fill="#571519" d="M1295.58,1704.78c-19.4,0-39.1-4.75-58.3-9.39-8-1.94-15.66-3.78-23.24-5.28-47.63-9.43-95.39-23.39-141.57-36.9-20-5.85-40.71-11.9-61-17.47-4.5-1.23-9-2.52-13.58-3.82-39.28-11.17-79.9-22.72-117.11-2.34a4.57,4.57,0,1,1-4.39-8c40.5-22.19,82.95-10.11,124,1.57,4.52,1.28,9,2.56,13.5,3.78,20.4,5.6,41.13,11.66,61.18,17.52,46,13.44,93.56,27.35,140.78,36.7,7.78,1.54,15.83,3.48,23.61,5.37,24,5.78,48.73,11.77,71.69,7.9a4.57,4.57,0,1,1,1.52,9A102.47,102.47,0,0,1,1295.58,1704.78Z"></path>
    <path fill="#571519" d="M1181.79 1679.3a3.78 3.78 0 0 1-.74-.07c-37.36-6.12-75.18-14.81-111.75-23.22-26.6-6.12-54.11-12.43-81.14-17.7-25.18-4.91-51.65-9.39-74-5.8a4.57 4.57 0 1 1-1.45-9c23.83-3.84 51.2.79 77.2 5.85 27.18 5.29 54.76 11.63 81.43 17.76 36.44 8.38 74.12 17 111.19 23.12a4.57 4.57 0 0 1-.74 9.08ZM1312.74 1702.84a4.51 4.51 0 0 1-3-1.11 4.56 4.56 0 0 1-.48-6.44c6.29-7.29 27-30.3 36.25-40.08 14.32-15.1 28.42-31 42.06-46.37 9.26-10.44 18.84-21.24 28.41-31.7 3.25-3.55 7.06-7.29 11.1-11.25 9.25-9.07 19.73-19.34 24.75-29a4.57 4.57 0 0 1 8.1 4.24c-5.69 10.88-16.72 21.7-26.45 31.24-3.94 3.87-7.67 7.52-10.75 10.88-9.53 10.42-19.08 21.19-28.32 31.6-13.69 15.43-27.85 31.39-42.27 46.6-9.2 9.71-29.72 32.52-36 39.76A4.54 4.54 0 0 1 1312.74 1702.84ZM2528 1427.2H2388.83a4.57 4.57 0 1 1 0-9.14H2528a4.57 4.57 0 1 1 0 9.14ZM1861.56 1427.2h-91.17a4.57 4.57 0 0 1 0-9.14h91.17a4.57 4.57 0 0 1 0 9.14ZM1466 1427.2H446a4.57 4.57 0 1 1 0-9.14H1466a4.57 4.57 0 0 1 0 9.14Z"></path>
    <path fill="#571519" d="M1333.51 1423.4a4.58 4.58 0 0 1-4.57-4.57c0-2.4.11-4.75.22-7.11s.22-4.46.22-6.74a4.57 4.57 0 0 1 9.14 0c0 2.43-.11 4.8-.23 7.17-.1 2.22-.21 4.43-.21 6.68A4.57 4.57 0 0 1 1333.51 1423.4ZM1307.75 684.93a3.3 3.3 0 0 1-.44 0c-11.87 0-42.09-9.13-79.72-43.36-21.12-19.54-32.37-47.19-32.84-48.35a4.57 4.57 0 0 1 8.48-3.41c.11.27 11 26.94 30.54 45 35.61 32.4 63.71 41 73.62 41h.28c12 0 32.17-13.49 50.5-33.68 15.43-17.17 27.63-39.55 32.87-54.11 3.11-9.54 4.6-17.21 6.48-26.93.89-4.6 1.86-9.63 3.14-15.5 2.14-10.41 4.95-19.68 7.68-28.66 3.68-12.13 7.16-23.58 8-35.39a4.57 4.57 0 0 1 9.11.67c-.93 12.82-4.55 24.75-8.39 37.38-2.66 8.77-5.41 17.85-7.48 27.89-1.26 5.84-2.23 10.81-3.11 15.35-1.94 10-3.47 18-6.81 28.16-5.58 15.52-18.46 39.16-34.73 57.27C1348.79 666 1325.36 684.93 1307.75 684.93Z"></path>
    <path fill="#571519" d="M1335.1,577.6a4.57,4.57,0,0,1-1.31-8.94c3.27-1,12.89-5.18,13.91-11,.26-1.44-.36-2.52-2.18-5.24-2.67-4-6.33-9.45-5.09-19.29,1.13-6.42,5.52-15.62,9.27-22.16a4.57,4.57,0,1,1,7.93,4.54c-4.16,7.27-7.44,14.9-8.16,19-.78,6.23,1.37,9.43,3.64,12.83,2.12,3.15,4.51,6.72,3.6,11.92-2.19,12.36-18.44,17.6-20.28,18.16A4.7,4.7,0,0,1,1335.1,577.6Z"></path>
    <path fill="#571519" fill-rule="evenodd" d="M1389.05,532.54c1.38-7.83-1-14.85-5.81-16.43-4.93-.87-10.86,3.94-12.24,11.77s1,14.84,5.8,16.43S1387.67,540.36,1389.05,532.54Z"></path>
    <path fill="#571519" d="M1408.9 488.7a4.58 4.58 0 0 1-3.33-1.43c-.38-.4-10.16-10.17-27.67-5.18a4.57 4.57 0 1 1-2.51-8.79c23-6.58 36.28 7.11 36.83 7.7a4.56 4.56 0 0 1-3.32 7.7ZM1398.79 529.45a4.52 4.52 0 0 1-3.17-1.28c-3.36-3.24-9.5-7.15-24-3.81a4.57 4.57 0 0 1-2.06-8.9c14.12-3.28 24.71-1.27 32.36 6.14a4.56 4.56 0 0 1-3.17 7.85Z"></path>
    <path fill="#571519" fill-rule="evenodd" d="M1283.17,514.12c1.39-7.83,6.74-13.48,11.67-12.61,5.63,1,8.85,7.43,8.17,15.38-1.38,7.82-6.74,13.48-11.67,12.6C1285.71,528.5,1281.79,521.94,1283.17,514.12Z"></path>
    <path fill="#571519" d="M1325.51 471.76a4.56 4.56 0 0 1-3.17-1.28c-12.72-12.28-40.83-3.45-41.11-3.35a4.57 4.57 0 0 1-2.81-8.7c1.36-.44 33.6-10.61 50.26 5.47a4.57 4.57 0 0 1-3.17 7.86ZM1312.21 514.14a4.53 4.53 0 0 1-3.51-1.64c-5.61-6.71-20.8-6-26.27-3.07a4.57 4.57 0 0 1-4.3-8.06c9.23-4.94 29.08-4.9 37.58 5.27a4.56 4.56 0 0 1-3.5 7.5ZM1180.72 559.84a4.63 4.63 0 0 1-1.7-.33c-19-7.62-30.85-25-31.65-46.56-.69-14.61 5-26.53 15.13-31.86s23-3 35.25 6.33a4.57 4.57 0 1 1-5.55 7.26c-9.28-7.11-18.56-9.11-25.46-5.49s-10.76 12.37-10.24 23.37c.32 8.6 3.48 29.48 25.92 38.47a4.57 4.57 0 0 1-1.7 8.81Z"></path>
    <path fill="#571519" d="M1179.14 523.62a4.56 4.56 0 0 1-4.27-2.94h0c-.61-1.59-3-6.42-5.95-7.74a4.57 4.57 0 1 1 3.74-8.33c6.92 3.1 10.38 11.84 10.75 12.83a4.56 4.56 0 0 1-4.27 6.18ZM1226.1 467.38a4.57 4.57 0 0 1-3.44-7.58c8.55-9.76 26.35-11.46 45.2-13.26 6.46-.61 13.15-1.25 19.56-2.22 28.62-4.32 49.23-17.24 61.24-38.4a4.57 4.57 0 0 1 7.95 4.51c-13.46 23.72-36.29 38.17-67.83 42.93-6.66 1-13.47 1.65-20.06 2.28-17 1.62-33 3.15-39.18 10.18A4.56 4.56 0 0 1 1226.1 467.38ZM1219.64 487.73a112.5 112.5 0 0 1-11.26-.69 4.57 4.57 0 0 1 .91-9.09c17.65 1.78 23.12.8 36.53-12.81a4.57 4.57 0 0 1 6.52 6.41C1240.07 484 1232.35 487.73 1219.64 487.73ZM1432.57 494.36a4.52 4.52 0 0 1-1.87-.41c-11.44-5.14-16.21-9.5-20.42-18.67-2.35-5.3-4.61-13.07-7.22-22.08-4.9-16.91-13.12-45.22-22.12-46.59-3.25-.5-7.71 3.26-12.58 10.59a4.56 4.56 0 1 1-7.61-5c7.24-10.93 14.28-15.69 21.57-14.59 14.77 2.26 22.61 29.26 29.52 53.09 2.41 8.32 4.7 16.18 6.77 20.87 3 6.57 5.74 9.55 15.84 14.09a4.57 4.57 0 0 1-1.88 8.74Z"></path>
    <path fill="#571519" d="M1408.34 537a4.49 4.49 0 0 1-1.71-.34 4.56 4.56 0 0 1-2.52-5.95c3.81-9.44 12.49-16.86 21.67-24.72 11.14-9.53 22.66-19.39 27.07-33.74 7.82-25.46-2.66-65.5-11.61-86.2-2.88-6.65-29.28-49.61-61.5-45a4.57 4.57 0 1 1-1.3-9.05c37.93-5.48 67.35 41.51 71.19 50.38 9.49 21.94 20.51 64.69 12 92.52-5.19 16.88-18.3 28.1-29.86 38-8.32 7.12-16.17 13.83-19.15 21.21A4.57 4.57 0 0 1 1408.34 537ZM1156.16 497.56a4.59 4.59 0 0 1-4.39-3.29c-15.22-52-17-127.44 28.12-168.61 49.26-43.89 128.94-46.41 189.54-6.05a4.57 4.57 0 0 1-5.07 7.61c-57.19-38.1-132.19-35.91-178.35 5.23-42 38.29-40 109.73-25.46 159.25a4.59 4.59 0 0 1-3.11 5.67A4.41 4.41 0 0 1 1156.16 497.56Z"></path>
    <path fill="#571519" d="M1105.05,577.26a4.52,4.52,0,0,1-1.73-.34c-2.33-.95-56.72-24.74-31.24-143.71,13.65-61,43.16-108.26,64.8-126.32,33.78-28.81,72.75-.24,73.14.05a4.57,4.57,0,1,1-5.48,7.31c-.33-.24-33.44-24.52-61.77-.37-20.53,17.13-48.59,62.36-61.76,121.29-15.18,70.88-.58,105.54,12,121.37a173.22,173.22,0,0,1-9.13-67,4.51,4.51,0,0,1,4.83-4.29,4.57,4.57,0,0,1,4.29,4.83c-2.79,47.27,15.78,80,16,80.31a4.57,4.57,0,0,1-4,6.86Z"></path>
    <path fill="#571519" d="M1119.65 523.37a4.56 4.56 0 0 1-3.33-1.44c-33.07-35.23-13.06-104.76 2.14-136.6a4.57 4.57 0 1 1 8.24 3.94c-14.26 29.89-33.4 94.78-3.71 126.41a4.56 4.56 0 0 1-3.34 7.69ZM1161.94 698a4.47 4.47 0 0 1-1.48-.25 4.57 4.57 0 0 1-2.85-5.8c14-40.89 10.64-92 6.89-127a4.57 4.57 0 0 1 9.09-1c3.84 35.8 7.25 88.31-7.33 130.92A4.56 4.56 0 0 1 1161.94 698ZM1129.57 688.46h-.11c-20.73-.47-36.54-18.83-42.46-35.69-8.75-25-8.88-47.94-9-72.29 0-8.86-.11-18-.61-27.33a4.57 4.57 0 0 1 9.13-.49c.51 9.52.57 18.8.62 27.77.13 23.56.26 45.8 8.5 69.31 5.06 14.43 18.38 29.23 34 29.59a4.57 4.57 0 0 1-.1 9.14Z"></path>
    <path fill="#571519" d="M1137.2,676.47c-7.81,0-16.37-9-21.07-14.86-13.85-17.14-16.24-43.21-15.8-62.07a4.48,4.48,0,0,1,4.67-4.46,4.57,4.57,0,0,1,4.46,4.67c-.4,17.33,1.67,41.13,13.78,56.12,6.77,8.38,12.6,11.88,14,11.46a4.57,4.57,0,0,1,2.69,8.73A9.29,9.29,0,0,1,1137.2,676.47Z"></path>
    <path fill="#571519" d="M1148.31,665.29a4.57,4.57,0,0,1-1.21-.16c-26-7.11-36.36-38.38-43.9-61.21l-1.15-3.5a4.57,4.57,0,1,1,8.67-2.88l1.16,3.51c6.89,20.87,16.31,49.44,37.63,55.26a4.57,4.57,0,0,1-1.2,9Z"></path>
    <path fill="#fff" fill-rule="evenodd" d="M1350.24,609.76s-6.5-9.76-24-14.43c-18.43-4.93-40.23-2.24-40.23-2.24s2.23,31.3,27,37.6C1334.5,636.14,1350.24,609.76,1350.24,609.76Z"></path>
    <path fill="#571519" d="M1319 636a28.77 28.77 0 0 1-7.09-.9c-27.66-7-30.35-40.29-30.45-41.7a4.56 4.56 0 0 1 4-4.86c.92-.12 22.9-2.74 42 2.36 18.92 5.06 26.3 15.84 26.6 16.3a4.56 4.56 0 0 1 .12 4.88C1353.52 613.17 1339.64 636 1319 636Zm-27.74-38.79c1.63 8.15 6.9 25 22.91 29 14.18 3.6 26-10.15 30.32-16.17-2.81-2.78-8.84-7.51-19.42-10.34C1312.67 596.43 1298.45 596.76 1291.27 597.23ZM1337.46 700.48a4.61 4.61 0 0 1-2.86-1c-6.71-5.41-9-22.15-6.53-28.8a4.57 4.57 0 0 1 8.56 3.18c-1.49 4 1 16.29 3.7 18.49a4.57 4.57 0 0 1-2.87 8.13ZM1293.75 560.85a44.31 44.31 0 0 1-12-1.66c-24-6.73-38.49-32.29-32.23-57a4.57 4.57 0 0 1 8.86 2.24c-5.05 19.93 6.54 40.54 25.83 45.94A34.52 34.52 0 0 0 1311.1 547a36.3 36.3 0 0 0 17-22.78 4.57 4.57 0 1 1 8.86 2.25 45.36 45.36 0 0 1-21.29 28.44A43.65 43.65 0 0 1 1293.75 560.85ZM1391.73 576.9a36.29 36.29 0 0 1-10-1.42c-20-5.71-32.07-27.37-26.87-48.28a4.57 4.57 0 0 1 8.87 2.2c-4 16.19 5.18 32.92 20.51 37.3a26.9 26.9 0 0 0 21-2.61A29.36 29.36 0 0 0 1419 545.51a4.57 4.57 0 1 1 8.87 2.2 38.39 38.39 0 0 1-18 24.29A36.08 36.08 0 0 1 1391.73 576.9Z"></path>
    <path fill="#571519" d="M1360.87 536.36a4.46 4.46 0 0 1-2.41-.7c-9.12-5.7-18.89-6.06-26.78-1a4.57 4.57 0 0 1-4.93-7.69c10.83-6.94 24.5-6.58 36.55.95a4.57 4.57 0 0 1-2.43 8.45ZM1251.92 508.29a4.82 4.82 0 0 1-1-.1L1195.71 496a4.57 4.57 0 1 1 2-8.93l55.23 12.24a4.57 4.57 0 0 1-1 9Z"></path>
  </g>
</svg>
